<?xml version="1.0" encoding="utf-8"?>
<!-- Generator: Adobe Illustrator 24.2.1, SVG Export Plug-In . SVG Version: 6.00 Build 0)  -->
<svg version="1.1" id="Layer_1" xmlns="http://www.w3.org/2000/svg" xmlns:xlink="http://www.w3.org/1999/xlink" x="0px" y="0px"
	 viewBox="0 0 248.4 257.7" style="enable-background:new 0 0 248.4 257.7;" xml:space="preserve">
<style type="text/css">
	.st0{display:none;}
	.st1{display:inline;}
	.st2{fill:#039447;}
	.st3{fill:#38B34A;}
	.st4{display:inline;fill:#38B34A;}
	.st5{fill:url(#SVGID_1_);}
	.st6{fill:url(#SVGID_2_);}
	.st7{fill:none;}
	.st8{fill:#FAAF43;}
	.st9{fill:#F15B2A;}
	.st10{fill:#8CC540;}
	.st11{fill:url(#SVGID_3_);}
	.st12{fill:url(#SVGID_4_);}
</style>
<g id="Layer_2_1_" class="st0">
	<g class="st1">
		<path class="st2" d="M-28,286.3c0,0,59.4,56.3,134.5,58.3s137.4-51,137.4-51s-59.4-56.3-134.5-58.3S-28,286.3-28,286.3z"/>
		<path class="st3" d="M-28,286.3c0,0,62.4-53,137.4-51s134.5,58.3,134.5,58.3C105.1,258.9-9.7,273.3-28,286.3z"/>
	</g>
	<path class="st4" d="M246.7,350.3h-5.6c-0.7,0-1.3-0.6-1.3-1.3V121.5c0-0.7,0.6-1.3,1.3-1.3h5.6c0.7,0,1.3,0.6,1.3,1.3V349
		C248,349.7,247.4,350.3,246.7,350.3z"/>
	<path class="st4" d="M247,292.2l-5.1,2.3c-0.6,0.3-1.4,0-1.7-0.6l-28.7-62.4c-0.3-0.6,0-1.4,0.6-1.7l5.1-2.3c0.6-0.3,1.4,0,1.7,0.6
		l28.7,62.4C248,291.1,247.7,291.9,247,292.2z"/>
</g>
<g id="Layer_1_1_">
	<g>
		<g>
			<g>
				
					<linearGradient id="SVGID_1_" gradientUnits="userSpaceOnUse" x1="202.2581" y1="-393.16" x2="349.7389" y2="-393.16" gradientTransform="matrix(-0.224 1.1247 1.147 3.390590e-02 564.4215 -192.6503)">
					<stop  offset="0" style="stop-color:#F69320"/>
					<stop  offset="1" style="stop-color:#EF4137"/>
				</linearGradient>
				<path class="st5" d="M13.7,178l9.6-3.6l16.2,13.1l63.9-19.1l7.4-25.7c-4.4-0.4-9.5-1-17.5-6.2c-8-5.1-83-115.4-83-115.4
					c0,0,0,0,0-0.1c-5.4-3.1-8.5-0.8-9.6,5.1C0.6,26.2,72.2,128.9,13.7,178z"/>
				
					<radialGradient id="SVGID_2_" cx="508.4724" cy="168.577" r="43.7468" gradientTransform="matrix(-0.9349 1.199 1.1854 0.9241 351.7146 -571.8219)" gradientUnits="userSpaceOnUse">
					<stop  offset="0" style="stop-color:#F16429"/>
					<stop  offset="0.3466" style="stop-color:#F16728"/>
					<stop  offset="1" style="stop-color:#F69320"/>
					<stop  offset="1" style="stop-color:#F15B2A"/>
				</radialGradient>
				<path class="st6" d="M110.7,142.7c14.3-2,25.1,10.6,22.9,23.5c-0.6,3.7-2.7,7.1-5.6,9.5l-4.6,3.8c-2.7,2.3-4.8,5.3-5.5,8.8
					c-0.5,2.3-0.5,4.6-0.2,6.9c0.4,3.3,2.1,6.3,4.4,8.8l5.1,5.3c2.2,2.3,3.8,5.2,4.3,8.3c1.9,11.6-6.8,22.8-18.6,23.8
					c-3.2,0.3-6.4-0.6-9.2-2.2l-7.3-4.2c-3.1-1.8-6.6-2.6-10.1-2.1c-1.1,0.1-2.1,0.4-3.1,0.7c-4.8,1.4-8.5,5.2-10.2,9.9l-1.4,3.7
					c-1.8,4.8-5.7,8.6-10.6,10c-8.8,2.5-18.4-1.3-23-9.1c-2.3-3.8-2.6-8.5-1.3-12.8l2.1-6.8c1.3-4.2,1-8.7-1.2-12.5
					c0-0.1-0.1-0.1-0.1-0.2c-2.8-4.8-8-7.6-13.5-7.7l-4.5-0.1c-5.7-0.1-11-3.1-13.7-8.1c-3.7-6.6-3.4-14.9,0.8-21.3
					c3.2-5,9.1-7.6,15-7l2.4,0.2c6.2,0.6,12.3-2.3,15.5-7.6c0.1-0.1,0.2-0.3,0.2-0.4c1.8-3.1,2.3-6.9,1.7-10.4l-1.5-9.2
					c-0.5-3.2-0.2-6.6,1.3-9.6c4.2-8.4,13.6-12.6,22.3-10.9c6.2,1.2,11.1,6.1,12.5,12.2l0.3,1.3c1.4,5.6,5.5,10.3,11,11.8
					c2.7,0.7,5.5,0.9,8.3,0.5"/>
			</g>
			<g>
				<g>
					<line class="st7" x1="80.5" y1="179.9" x2="106" y2="222.1"/>
					<path class="st8" d="M80.7,179.8c3,3,5.8,6.1,8.2,9.4c2.5,3.3,4.7,6.7,6.9,10.2c2.1,3.5,4.1,7.1,5.8,10.9
						c1.8,3.7,3.3,7.6,4.5,11.7l-0.3,0.2l-12.9-21L80.4,180L80.7,179.8z"/>
				</g>
				<g>
					<line class="st7" x1="99" y1="213.2" x2="107.3" y2="225.9"/>
					<path class="st9" d="M99.2,213.1c2,0.2,3.3,0.8,4.5,1.6c1.2,0.7,2.1,1.7,2.7,2.7c0.7,1.1,1.2,2.2,1.4,3.6
						c0.2,1.4,0.3,2.9-0.4,4.7l-0.4,0.2c-1.5-2-2.9-4.2-4.3-6.2c-1.3-2.2-2.7-4.2-4-6.5L99.2,213.1z"/>
				</g>
				<g>
					<line class="st7" x1="76.9" y1="184.2" x2="93.4" y2="230.7"/>
					<path class="st8" d="M77.1,184.2c2.4,3.5,4.4,7.1,6.2,10.9c1.8,3.7,3.3,7.6,4.7,11.4c1.3,3.9,2.6,7.8,3.5,11.8
						c1,4,1.7,8.1,2.1,12.3l-0.3,0.1l-8.4-23.2l-8.1-23.3L77.1,184.2z"/>
				</g>
				<g>
					<line class="st7" x1="76" y1="234.1" x2="72.3" y2="185"/>
					<path class="st8" d="M75.8,234.1c-1.4-4-2.4-8.1-3.1-12.1c-0.8-4.1-1.2-8.1-1.5-12.2c-0.3-4.1-0.5-8.2-0.3-12.3
						c0.1-4.1,0.5-8.3,1.2-12.4l0.3,0l2,24.6l1.7,24.6L75.8,234.1z"/>
				</g>
				<g>
					<line class="st7" x1="85.9" y1="239.9" x2="75.1" y2="184.5"/>
					<path class="st8" d="M85.7,239.9c-2.1-4.4-3.6-8.9-5-13.4c-1.4-4.5-2.4-9.1-3.3-13.7c-0.8-4.6-1.6-9.3-2-14
						c-0.5-4.7-0.7-9.4-0.4-14.3l0.3-0.1l5.5,27.7l5.2,27.7L85.7,239.9z"/>
				</g>
				<g>
					<line class="st7" x1="62" y1="232.2" x2="65.8" y2="183"/>
					<path class="st8" d="M61.9,232.2c-0.8-4.2-1.2-8.3-1.2-12.5c-0.1-4.1,0.1-8.2,0.3-12.3c0.4-4.1,0.8-8.2,1.6-12.2
						c0.7-4.1,1.7-8.1,3.1-12.1l0.3,0l-1.7,24.6l-2.1,24.6L61.9,232.2z"/>
				</g>
				<g>
					<line class="st7" x1="88.2" y1="224" x2="96.1" y2="237"/>
					<path class="st9" d="M88.4,223.9c2,0.3,3.3,0.9,4.4,1.7c1.2,0.8,2,1.7,2.7,2.8c0.6,1.1,1.1,2.3,1.3,3.7
						c0.2,1.4,0.2,2.9-0.5,4.7l-0.4,0.2c-1.5-2.1-2.7-4.2-4.1-6.4c-1.2-2.2-2.6-4.3-3.7-6.6L88.4,223.9z"/>
				</g>
				<g>
					<line class="st7" x1="76.7" y1="240.2" x2="77.7" y2="225.1"/>
					<path class="st9" d="M76.5,240.2c-1.5-1.4-2.2-2.7-2.6-4c-0.5-1.3-0.6-2.6-0.6-3.8c0.1-1.3,0.4-2.5,1.1-3.7
						c0.6-1.2,1.5-2.4,3.1-3.6l0.4,0c0,2.5-0.2,5-0.3,7.6c-0.2,2.5-0.3,5-0.7,7.5L76.5,240.2z"/>
				</g>
				<g>
					<line class="st7" x1="63.5" y1="237.6" x2="64.3" y2="222.5"/>
					<path class="st9" d="M63.3,237.6c-1.5-1.3-2.2-2.7-2.7-3.9c-0.5-1.3-0.7-2.6-0.6-3.8c0.1-1.3,0.4-2.5,1-3.7
						c0.6-1.2,1.5-2.4,3.1-3.6l0.4,0c0,2.5-0.2,5-0.2,7.6c-0.2,2.5-0.3,5-0.7,7.5L63.3,237.6z"/>
				</g>
				
					<ellipse transform="matrix(0.9707 -0.2401 0.2401 0.9707 -55.5321 27.7651)" class="st10" cx="86.2" cy="241.8" rx="4.2" ry="4.2"/>
				<g>
					<line class="st7" x1="86.1" y1="209.1" x2="71.3" y2="212"/>
					<path class="st9" d="M86.2,209.3c-0.9,1.8-2,2.8-3.2,3.6c-1.1,0.8-2.3,1.3-3.6,1.5c-1.2,0.2-2.5,0.3-3.9-0.1
						c-1.3-0.3-2.7-0.8-4.3-2.1l-0.1-0.4c2.4-0.7,4.9-1.1,7.4-1.7c2.5-0.4,5-1,7.5-1.3L86.2,209.3z"/>
				</g>
			</g>
		</g>
		<g>
			
				<linearGradient id="SVGID_3_" gradientUnits="userSpaceOnUse" x1="-1194.585" y1="500.8932" x2="-1047.1031" y2="500.8932" gradientTransform="matrix(1.0997 -0.325 0.1378 1.1393 1258.9866 -878.7325)">
				<stop  offset="0" style="stop-color:#F69320"/>
				<stop  offset="1" style="stop-color:#EF4137"/>
			</linearGradient>
			<path class="st11" d="M165.2,11.7l-2.7,9.8l14.5,15l-13.3,65.3l-24.9,9.7c-0.8-4.3-1.9-9.4-7.7-16.8
				C125.2,87.3,8.6,22.6,8.6,22.6c0,0,0,0-0.1,0c-3.6-5.1-1.6-8.4,4.2-10C12.8,12.5,121.6,74.5,165.2,11.7z"/>
			
				<radialGradient id="SVGID_4_" cx="-831.8996" cy="240.5059" r="43.7376" gradientTransform="matrix(1.1093 -1.0398 1.0279 1.0966 862.0593 -1056.1184)" gradientUnits="userSpaceOnUse">
				<stop  offset="0" style="stop-color:#F16429"/>
				<stop  offset="0.3466" style="stop-color:#F16728"/>
				<stop  offset="1" style="stop-color:#F69320"/>
				<stop  offset="1" style="stop-color:#F15B2A"/>
			</radialGradient>
			<path class="st12" d="M138.8,111.6c-0.7,14.4,12.8,24.1,25.5,20.7c3.7-1,6.8-3.4,8.9-6.5l3.4-4.9c2-2.9,4.9-5.2,8.2-6.3
				c2.2-0.7,4.5-1,6.8-0.9c3.3,0.1,6.5,1.5,9.1,3.6l5.7,4.6c2.5,2,5.5,3.3,8.6,3.5c11.7,0.8,22.1-8.9,22.1-20.6c0-3.2-1.2-6.3-3-8.9
				l-4.9-6.9c-2-2.9-3.2-6.4-3-9.9c0-1.1,0.2-2.1,0.4-3.2c1-4.9,4.4-8.9,8.9-11.1l3.5-1.7c4.6-2.2,8-6.4,9-11.4
				c1.7-8.9-2.9-18.2-11.2-22.1c-4-1.9-8.7-1.9-12.9-0.2l-6.6,2.7c-4,1.7-8.6,1.8-12.6-0.1c-0.1,0-0.1-0.1-0.2-0.1
				c-5-2.3-8.3-7.3-8.9-12.8l-0.5-4.5C194.6,9,191.1,4,186,1.7c-6.9-3-15.1-2-21.1,2.7c-4.7,3.7-6.7,9.8-5.6,15.6l0.4,2.4
				c1.1,6.1-1.2,12.4-6.2,16.1c-0.1,0.1-0.3,0.2-0.4,0.3c-3,2.1-6.6,2.9-10.2,2.7l-9.3-0.7c-3.3-0.2-6.6,0.4-9.4,2.2
				c-7.9,5-11.3,14.7-8.8,23.2c1.7,6.1,7.1,10.5,13.3,11.4l1.3,0.2c5.7,0.8,10.7,4.5,12.8,9.9c1,2.6,1.4,5.3,1.3,8.2"/>
			<g>
				<g>
					<line class="st7" x1="174.5" y1="61.1" x2="222.8" y2="51.6"/>
					<path class="st8" d="M174.5,61c3.8-1.9,7.7-3.4,11.7-4.5c3.9-1.2,7.9-2.2,12-3c4-0.7,8.1-1.4,12.2-1.8
						c4.1-0.4,8.3-0.5,12.5-0.3l0.1,0.3l-24.1,5l-24.2,4.6L174.5,61z"/>
				</g>
				<g>
					<line class="st7" x1="212.1" y1="55.1" x2="226.9" y2="51.7"/>
					<path class="st9" d="M212.1,54.9c0.9-1.8,1.9-2.9,3-3.7c1.1-0.9,2.3-1.4,3.5-1.7c1.2-0.3,2.5-0.3,3.9-0.1
						c1.3,0.2,2.8,0.7,4.3,1.9l0.1,0.4c-2.4,0.8-4.9,1.3-7.3,1.9c-2.5,0.5-4.9,1.1-7.4,1.5L212.1,54.9z"/>
				</g>
				<g>
					<line class="st7" x1="177.3" y1="66" x2="226.6" y2="66.4"/>
					<path class="st8" d="M177.3,65.9c4.1-1,8.2-1.7,12.3-2.1c4.1-0.4,8.2-0.5,12.3-0.5c4.1,0.1,8.2,0.2,12.3,0.7
						c4.1,0.4,8.2,1.2,12.3,2.3l0,0.3l-24.6,0l-24.6-0.4L177.3,65.9z"/>
				</g>
				<g>
					<line class="st7" x1="223.9" y1="83.9" x2="176.4" y2="70.6"/>
					<path class="st8" d="M223.9,84.1c-4.2-0.1-8.4-0.5-12.4-1.2c-4.1-0.7-8.1-1.7-12-2.7c-3.9-1.2-7.9-2.4-11.7-3.9
						c-3.9-1.5-7.6-3.3-11.3-5.4l0.1-0.3l23.8,6.5l23.7,6.8L223.9,84.1z"/>
				</g>
				<g>
					<line class="st7" x1="232.7" y1="76.5" x2="176.9" y2="67.8"/>
					<path class="st8" d="M232.7,76.7c-4.8,0.5-9.6,0.4-14.3,0.1c-4.7-0.3-9.4-0.9-14-1.6c-4.6-0.8-9.3-1.6-13.8-2.9
						c-4.6-1.2-9.1-2.5-13.6-4.5l0.1-0.3l27.9,4.2l27.8,4.6L232.7,76.7z"/>
				</g>
				<g>
					<line class="st7" x1="217.3" y1="96.4" x2="172.4" y2="76"/>
					<path class="st8" d="M217.2,96.5c-4.2-0.7-8.2-1.7-12.1-3.1c-3.9-1.3-7.7-2.9-11.5-4.5c-3.7-1.7-7.4-3.6-11-5.7
						c-3.6-2-7-4.4-10.3-7.1l0.1-0.3l22.5,10l22.4,10.3L217.2,96.5z"/>
				</g>
				<g>
					<line class="st7" x1="218.6" y1="68.9" x2="233.5" y2="66"/>
					<path class="st9" d="M218.6,68.7c0.9-1.8,2-2.8,3.2-3.6c1.1-0.8,2.3-1.3,3.6-1.5c1.2-0.2,2.5-0.3,3.9,0.1
						c1.3,0.3,2.7,0.8,4.3,2.1l0.1,0.4c-2.4,0.7-4.9,1.1-7.4,1.7c-2.5,0.4-5,0.9-7.5,1.3L218.6,68.7z"/>
				</g>
				<g>
					<line class="st7" x1="229.8" y1="85.3" x2="216" y2="79.2"/>
					<path class="st9" d="M229.7,85.5c-1.8,0.9-3.3,1.1-4.6,1.1c-1.4,0-2.6-0.3-3.8-0.8c-1.1-0.5-2.2-1.2-3.1-2.3
						c-0.9-1-1.8-2.3-2.3-4.2L216,79c2.4,0.8,4.7,1.9,7,2.8c2.3,1.1,4.6,2,6.9,3.2L229.7,85.5z"/>
				</g>
				<g>
					<line class="st7" x1="222.9" y1="96.8" x2="209" y2="90.9"/>
					<path class="st9" d="M222.8,97c-1.8,0.9-3.2,1.2-4.6,1.2c-1.4,0-2.6-0.3-3.8-0.7c-1.2-0.5-2.2-1.2-3.2-2.2
						c-0.9-1-1.8-2.2-2.3-4.1l0.2-0.4c2.4,0.8,4.7,1.9,7,2.8c2.3,1.1,4.6,2,6.9,3.2L222.8,97z"/>
				</g>
				<circle class="st10" cx="234.6" cy="76.9" r="4.2"/>
				<g>
					<line class="st7" x1="203.8" y1="65.8" x2="201.5" y2="80.8"/>
					<path class="st9" d="M204,65.9c1.3,1.5,1.9,2.8,2.3,4.2c0.4,1.3,0.4,2.6,0.2,3.9c-0.2,1.2-0.6,2.5-1.4,3.6
						c-0.7,1.2-1.7,2.3-3.4,3.3l-0.4-0.1c0.2-2.5,0.6-5,0.9-7.5c0.5-2.5,0.8-5,1.4-7.5L204,65.9z"/>
				</g>
			</g>
		</g>
	</g>
</g>
</svg>
